<svg fill="none" height="77" viewBox="0 0 70 77" width="70" xmlns="http://www.w3.org/2000/svg"><g fill="#fffdf1"><path d="m27.364 70.752h3.152v.912c0 .4.08.528.832.528.896 0 1.28-.24 1.28-.688 0-.272-.096-1.52-.096-5.168v-3.072c.48-.4.512-.464.512-.624s-.048-.24-.704-.8c-.768-.656-.832-.672-1.008-.672-.16 0-.24.032-.992.96h-2.704c-.112-.16-.624-.368-2.256-.736.08.672.096 1.168.096 4.864 0 3.552-.096 5.328-.096 5.744 0 .4.08.528.592.528 1.008 0 1.392-.24 1.392-.688zm3.152-8.304v3.776h-3.152v-3.584c.096-.064.176-.128.224-.192zm-3.152 7.984v-3.888h3.152v3.888zm-4.576-5.968h2.176c.112 0 .176-.096.176-.192 0-.128-.048-.176-.528-.704-.608-.672-.656-.688-.768-.688-.128 0-.16 0-1.008 1.264h-.048v-2.432c.448-.24.56-.352.56-.544 0-.272-.432-.416-2.464-.592.112.864.112 1.328.112 3.568h-.32c-.496 0-.912-.016-1.728-.112l.16.544c.752-.096 1.136-.112 1.568-.112h.32v3.312l-.768.144c-.56.112-.992.192-1.424.24.816 2.304.88 2.336 1.072 2.336.16 0 .24-.08.368-.448l.752-.464v2.944c0 .528-.144.752-.512.8-.448.064-.8.096-1.408.128-.096 0-.096.128 0 .16.992.336 1.296.8 1.44 1.344.08.32.192.416.448.416.352 0 .704-.08 1.12-.336.48-.288.784-.8.784-1.552 0-.512-.064-1.216-.08-4.848.736-.496 1.408-.976 2.416-1.68.08-.048.032-.192-.064-.16-.928.24-1.648.432-2.352.592zm2.624 9.76c-.512 0-.928-.016-1.936-.112l.144.544c.928-.08 1.312-.112 1.792-.112h8.56c.128 0 .176-.064.176-.16 0-.176-.048-.24-.544-.736-.928-.928-1.024-.976-1.184-.976-.176 0-.24.08-1.344 1.552zm22.672-7.744c1.12-.704 2.592-1.872 3.84-3.12.528-.064.704-.144.704-.4 0-.24-.24-.4-2.656-1.52-.08.416-.16.736-.464 1.6-.432 1.216-.976 2.48-1.536 3.312-.048.08.032.176.112.128zm-7.296-4.288c.688.544 1.12 1.472 1.216 2.8.064.864.464 1.2 1.04 1.2.672 0 1.232-.512 1.232-1.392 0-1.232-1.168-2.416-3.408-2.784-.096-.016-.16.112-.08.176zm6.784 4.784v-5.472c.448-.208.56-.32.56-.496 0-.224-.304-.352-2.816-.592.096.864.112 1.424.112 2.32v4.24h-2.768c-.496 0-1.072-.032-1.904-.112l.16.544c.752-.08 1.296-.112 1.744-.112h7.696v2.992h-7.456c-.496 0-1.072-.032-1.904-.112l.16.544c.752-.08 1.296-.112 1.744-.112h7.456v3.184h-7.904c-.496 0-1.072-.032-1.904-.112l.16.544c.752-.08 1.296-.112 1.744-.112h7.904v.56c0 .4.096.528.896.528.944 0 1.392-.176 1.392-.624 0-.528-.08-1.424-.08-5.104v-1.44c.464-.352.496-.384.496-.56 0-.16-.048-.256-.704-.784-.88-.72-.992-.752-1.168-.752-.16 0-.256.048-1.104 1.04z"/><path clip-rule="evenodd" d="m60.4756 59h-50.95121c-5.90524-6.266-9.52439-14.7103-9.52439-24 0-19.33 15.67-35 35-35s35 15.67 35 35c0 9.2897-3.6191 17.734-9.5244 24z" fill-rule="evenodd"/></g></svg>