<svg width="70" height="77" viewBox="0 0 70 77" fill="none" xmlns="http://www.w3.org/2000/svg">
<path fill-rule="evenodd" clip-rule="evenodd" d="M60.4756 59H9.52439C3.61915 52.734 0 44.2897 0 35C0 15.67 15.67 0 35 0C54.33 0 70 15.67 70 35C70 44.2897 66.3809 52.734 60.4756 59Z" fill="#FFFDF1"/>
<path d="M15.46 64.016C15.812 63.84 15.86 63.728 15.86 63.6C15.86 63.36 15.62 63.312 13.796 63.024C13.876 63.712 13.876 64.464 13.876 65.888C13.876 67.408 13.796 68.56 13.796 69.04C13.796 69.36 13.876 69.584 14.34 69.584C15.204 69.584 15.46 69.28 15.46 68.928V64.016ZM12.228 66.592H13.652C13.764 66.592 13.812 66.544 13.812 66.448C13.812 66.336 13.78 66.256 13.46 65.84C13.06 65.312 12.996 65.264 12.884 65.264C12.788 65.264 12.708 65.376 12.228 66.224V62.624C12.468 62.528 12.596 62.448 12.596 62.272H14.308C14.42 62.272 14.484 62.224 14.484 62.128C14.484 62.016 14.468 61.984 14.068 61.568C13.396 60.88 13.316 60.816 13.22 60.816C13.108 60.816 13.076 60.848 12.228 61.952H10.42C9.748 61.952 9.412 61.92 8.74 61.84L8.9 62.384C9.508 62.288 9.812 62.272 10.388 62.272C10.436 62.672 10.436 63.072 10.436 63.472V66.272C10.004 66.256 9.524 66.24 8.868 66.16L9.012 66.704C9.62 66.624 10.068 66.608 10.436 66.592V70.784C10.148 70.816 9.876 70.848 9.652 70.864C9.348 70.896 8.948 70.912 8.66 70.912C9.364 73.344 9.492 73.488 9.716 73.488C9.86 73.488 10.036 73.36 10.132 72.832C11.62 72.064 13.204 71.152 14.772 70.256C14.852 70.208 14.788 70.064 14.692 70.08C14.004 70.24 13.108 70.4 12.228 70.528V66.592ZM21.492 74.144V67.952H23.524C23.636 67.952 23.7 67.904 23.7 67.808C23.7 67.728 23.668 67.648 23.268 67.184C22.724 66.56 22.58 66.416 22.468 66.416C22.34 66.416 22.244 66.56 21.54 67.632H21.492V62.4C21.716 62.32 21.844 62.24 21.86 62.08H23.524C23.636 62.08 23.7 62.032 23.7 61.936C23.7 61.856 23.636 61.728 23.22 61.248C22.66 60.592 22.564 60.512 22.42 60.512C22.292 60.512 22.212 60.624 21.396 61.76H19.924C19.508 61.76 18.98 61.744 18.26 61.648C18.308 61.6 18.324 61.552 18.324 61.504C18.324 61.296 18.148 61.12 15.988 60.832C16.068 61.664 16.132 62.816 16.132 67.68C16.132 72.096 15.108 73.952 13.044 75.28C12.964 75.328 13.044 75.488 13.14 75.456C16.388 74.128 17.876 72.016 17.876 68.416V61.92C18.036 61.824 18.148 61.76 18.228 61.696L18.372 62.192C18.836 62.144 19.22 62.112 19.508 62.096C19.54 62.48 19.54 62.864 19.54 63.248V67.632C19.188 67.616 18.772 67.584 18.244 67.52L18.404 68.064C18.868 68.016 19.252 67.984 19.54 67.968V74.144H18.164C17.732 74.144 17.204 74.128 16.452 74.032L16.612 74.576C17.364 74.496 17.876 74.464 18.164 74.464H23.844C23.956 74.464 24.02 74.416 24.02 74.32C24.02 74.24 23.956 74.128 23.54 73.648C22.932 72.96 22.836 72.896 22.708 72.896C22.58 72.896 22.5 72.976 21.7 74.144H21.492ZM37.444 70.752H40.596V71.664C40.596 72.064 40.676 72.192 41.428 72.192C42.324 72.192 42.708 71.952 42.708 71.504C42.708 71.232 42.612 69.984 42.612 66.336V63.264C43.092 62.864 43.124 62.8 43.124 62.64C43.124 62.48 43.076 62.4 42.42 61.84C41.652 61.184 41.588 61.168 41.412 61.168C41.252 61.168 41.172 61.2 40.42 62.128H37.716C37.604 61.968 37.092 61.76 35.46 61.392C35.54 62.064 35.556 62.56 35.556 66.256C35.556 69.808 35.46 71.584 35.46 72C35.46 72.4 35.54 72.528 36.052 72.528C37.06 72.528 37.444 72.288 37.444 71.84V70.752ZM40.596 62.448V66.224H37.444V62.64C37.54 62.576 37.62 62.512 37.668 62.448H40.596ZM37.444 70.432V66.544H40.596V70.432H37.444ZM32.868 64.464H35.044C35.156 64.464 35.22 64.368 35.22 64.272C35.22 64.144 35.172 64.096 34.692 63.568C34.084 62.896 34.036 62.88 33.924 62.88C33.796 62.88 33.764 62.88 32.916 64.144H32.868V61.712C33.316 61.472 33.428 61.36 33.428 61.168C33.428 60.896 32.996 60.752 30.964 60.576C31.076 61.44 31.076 61.904 31.076 64.144H30.756C30.26 64.144 29.844 64.128 29.028 64.032L29.188 64.576C29.94 64.48 30.324 64.464 30.756 64.464H31.076V67.776L30.308 67.92C29.748 68.032 29.316 68.112 28.884 68.16C29.7 70.464 29.764 70.496 29.956 70.496C30.116 70.496 30.196 70.416 30.324 70.048L31.076 69.584V72.528C31.076 73.056 30.932 73.28 30.564 73.328C30.116 73.392 29.764 73.424 29.156 73.456C29.06 73.456 29.06 73.584 29.156 73.616C30.148 73.952 30.452 74.416 30.596 74.96C30.676 75.28 30.788 75.376 31.044 75.376C31.396 75.376 31.748 75.296 32.164 75.04C32.644 74.752 32.948 74.24 32.948 73.488C32.948 72.976 32.884 72.272 32.868 68.64C33.604 68.144 34.276 67.664 35.284 66.96C35.364 66.912 35.316 66.768 35.22 66.8C34.292 67.04 33.572 67.232 32.868 67.392V64.464ZM35.492 74.224C34.98 74.224 34.564 74.208 33.556 74.112L33.7 74.656C34.628 74.576 35.012 74.544 35.492 74.544H44.052C44.18 74.544 44.228 74.48 44.228 74.384C44.228 74.208 44.18 74.144 43.684 73.648C42.756 72.72 42.66 72.672 42.5 72.672C42.324 72.672 42.26 72.752 41.156 74.224H35.492ZM58.164 66.48C59.284 65.776 60.756 64.608 62.004 63.36C62.532 63.296 62.708 63.216 62.708 62.96C62.708 62.72 62.468 62.56 60.052 61.44C59.972 61.856 59.892 62.176 59.588 63.04C59.156 64.256 58.612 65.52 58.052 66.352C58.004 66.432 58.084 66.528 58.164 66.48ZM50.868 62.192C51.556 62.736 51.988 63.664 52.084 64.992C52.148 65.856 52.548 66.192 53.124 66.192C53.796 66.192 54.356 65.68 54.356 64.8C54.356 63.568 53.188 62.384 50.948 62.016C50.852 62 50.788 62.128 50.868 62.192ZM57.652 66.976V61.504C58.1 61.296 58.212 61.184 58.212 61.008C58.212 60.784 57.908 60.656 55.396 60.416C55.492 61.28 55.508 61.84 55.508 62.736V66.976H52.74C52.244 66.976 51.668 66.944 50.836 66.864L50.996 67.408C51.748 67.328 52.292 67.296 52.74 67.296H60.436V70.288H52.98C52.484 70.288 51.908 70.256 51.076 70.176L51.236 70.72C51.988 70.64 52.532 70.608 52.98 70.608H60.436V73.792H52.532C52.036 73.792 51.46 73.76 50.628 73.68L50.788 74.224C51.54 74.144 52.084 74.112 52.532 74.112H60.436V74.672C60.436 75.072 60.532 75.2 61.332 75.2C62.276 75.2 62.724 75.024 62.724 74.576C62.724 74.048 62.644 73.152 62.644 69.472V68.032C63.108 67.68 63.14 67.648 63.14 67.472C63.14 67.312 63.092 67.216 62.436 66.688C61.556 65.968 61.444 65.936 61.268 65.936C61.108 65.936 61.012 65.984 60.164 66.976H57.652Z" fill="#FFFDF1"/>
</svg>
