<?xml version="1.0" encoding="utf-8"?>
<!-- Generator: Adobe Illustrator 26.1.0, SVG Export Plug-In . SVG Version: 6.00 Build 0)  -->
<svg version="1.1" id="レイヤー_1" xmlns="http://www.w3.org/2000/svg" xmlns:xlink="http://www.w3.org/1999/xlink" x="0px"
	 y="0px" viewBox="0 0 74 112.4" style="enable-background:new 0 0 74 112.4;" xml:space="preserve">
<style type="text/css">
	.st0{fill:#FFFDF1;}
	.st1{fill-rule:evenodd;clip-rule:evenodd;fill:#FFFDF1;}
	.st2{fill:#C0C0C0;}
</style>
<g>
	<path class="st0" d="M70.9,17c0-2.3-2.3-4.1-5.2-4.1c-2.8,0-5.2,1.9-5.2,4.1c0,1.1,0.6,2.1,1.4,2.9c-3.5,5.8-10.2,7.9-15.4,6
		c-4.6-1.6-6.3-6.3-6.9-10c1.9-0.8,3.2-2.4,3.2-4.2c0-2.6-2.7-4.8-5.9-4.8C33.6,6.9,31,9,31,11.7c0,1.8,1.3,3.4,3.2,4.2
		c-0.6,3.6-2.3,8.3-6.9,10c-5.2,1.8-11.9-0.2-15.4-6c0.9-0.7,1.4-1.8,1.4-2.9c0-2.3-2.3-4.1-5.2-4.1c-2.8,0-5.2,1.9-5.2,4.1
		c0,2.1,2,3.8,4.5,4.1l5.9,17.5h47l5.9-17.5C69,20.8,70.9,19.1,70.9,17z"/>
	<path class="st0" d="M63.4,46c0,1.7-1.7,3.1-3.8,3.1H14.5c-2.1,0-3.8-1.4-3.8-3.1v-0.3c0-1.7,1.7-3.1,3.8-3.1h45.1
		c2.1,0,3.8,1.4,3.8,3.1C63.4,45.7,63.4,46,63.4,46z"/>
</g>
<path class="st1" d="M62.4,89.1c6-6.3,9.6-14.8,9.6-24.1c0-9.8-4-18.6-10.4-24.9H12.4C6,46.4,2,55.2,2,65c0,9.3,3.7,17.8,9.6,24.1
	H62.4z"/>
<path class="st2" d="M62.4,89.1v2h0.9l0.6-0.6L62.4,89.1z M61.6,40.1l1.4-1.4l-0.6-0.6h-0.8C61.6,38.1,61.6,40.1,61.6,40.1z
	 M12.4,40.1v-2h-0.8L11,38.7L12.4,40.1z M11.6,89.1l-1.5,1.4l0.6,0.6h0.9V89.1z M70,65c0,8.8-3.4,16.8-9.1,22.7l2.9,2.8
	C70.1,83.8,74,74.9,74,65H70z M60.2,41.5c6.1,6,9.8,14.3,9.8,23.5h4c0-10.3-4.2-19.6-11-26.3L60.2,41.5z M12.4,42.1h49.1v-4H12.4
	V42.1z M4,65c0-9.2,3.8-17.5,9.8-23.5L11,38.7C4.2,45.4,0,54.7,0,65H4z M13.1,87.7C7.4,81.8,4,73.8,4,65H0c0,9.9,3.9,18.8,10.2,25.5
	L13.1,87.7z M62.4,87.1H11.6v4h50.8V87.1z"/>
<path class="st0" d="M15.9,92v1.7h-1c-0.1-0.2-0.5-0.3-2.2-0.7c0,0.6,0,1.4,0,2.2c0,0.8-0.1,1.6-0.1,1.8c0,0.5,0.1,0.6,0.6,0.6
	c0.8,0,1.2-0.2,1.2-0.8H22l0,0c0,0.4,0.1,0.6,0.8,0.6c0.9,0,1.3-0.3,1.3-0.7c0-0.2-0.1-1.2-0.1-1.8v-0.3c0.4-0.4,0.5-0.4,0.5-0.5
	c0-0.2,0-0.2-0.6-0.6c-0.8-0.6-0.9-0.6-1-0.6s-0.2,0-1,0.9h-1.2v-1.5c0.1-0.1,0.2-0.2,0.2-0.2h4.5c0.1,0,0.2-0.1,0.2-0.2
	s0-0.2-0.7-0.8c-0.8-0.7-0.8-0.7-1-0.7s-0.2,0-1.3,1.3h-8.9c-0.8,0-1.6,0-2.6-0.1l0.1,0.5c0.9-0.1,1.6-0.1,2.4-0.1
	C13.6,92,15.9,92,15.9,92z M18.9,92v1.7h-1.3v-1.5c0.1-0.1,0.2-0.2,0.2-0.2H18.9z M22,94v2.5h-1.3V94H22z M17.6,94h1.3v2.5h-1.3V94z
	 M15.9,96.5h-1.3v-2.2c0.1-0.1,0.2-0.2,0.3-0.2h1V96.5z M15.5,98.3c-0.5,0-1.2,0-2-0.1l0.2,0.5c0.8-0.1,1.4-0.1,1.8-0.1h7.1
	c0.1,0,0.2,0,0.2-0.2c0-0.1-0.1-0.2-0.6-0.7c-0.7-0.6-0.8-0.7-0.9-0.7s-0.2,0-1.1,1.2L15.5,98.3L15.5,98.3z M16.7,102.2
	c0-0.2-0.1-0.3-2.1-1.4c-0.2,0.5-0.4,0.8-0.7,1.1c-1,1.5-2.2,2.6-3.1,3.1c-0.1,0,0,0.2,0.1,0.2c1.8-0.4,3.7-1.5,5.1-2.6
	C16.5,102.5,16.7,102.4,16.7,102.2z M20,101.2c-0.1,0-0.1,0.1,0,0.2c1.2,0.5,2.1,1.4,2.6,2.4c0.3,0.6,0.6,0.8,1,0.8
	c0.6,0,1.1-0.4,1.1-1.1C24.7,102.3,22.8,101.2,20,101.2z M13.7,100.1c-0.7,0-1.4,0-2.3-0.1l0.1,0.5c0.9-0.1,1.6-0.1,2.2-0.1h3.7
	c0,0.4,0,0.7,0,1.2v1c0,0.7-0.2,0.9-0.7,0.9c-0.4,0-0.8,0.1-1.4,0c-0.1,0-0.1,0.1,0,0.2c1,0.3,1.3,0.7,1.5,1.2
	c0.1,0.4,0.3,0.4,0.6,0.4c0.3,0,0.8,0,1.2-0.3c0.6-0.4,0.8-0.8,0.8-1.6c0-0.7-0.1-1.2-0.1-2.2v-0.6c0.3-0.1,0.3-0.3,0.3-0.4h5.6
	c0.2,0,0.3-0.1,0.3-0.2s0-0.2-0.6-0.7c-0.9-0.8-0.9-0.8-1.1-0.8c-0.1,0-0.2,0-1.3,1.4h-8.8C13.7,99.9,13.7,100.1,13.7,100.1z
	 M38,92.4c0,0.2,0,0.4,0,0.6c0,0.4,0.2,0.5,0.6,0.5c1,0,1.2-0.2,1.2-0.7c0-0.1,0-0.3,0-0.4h1.3v0.4c0,0.4,0.1,0.5,0.7,0.5
	c0.8,0,1.2-0.2,1.2-0.6c0-0.1,0-0.2,0-0.3h2.9c0.1,0,0.2,0,0.2-0.1s-0.1-0.2-0.5-0.7c-0.7-0.7-0.7-0.7-0.9-0.7c-0.1,0-0.2,0-1.1,1.2
	h-0.7c0-0.2,0-0.4,0-0.6v-0.3c0.3-0.1,0.4-0.3,0.4-0.4c0-0.2-0.2-0.3-2.3-0.4c0,0.6,0.1,0.8,0.1,1.3c0,0.1,0,0.3,0,0.4h-1.3
	c0-0.2,0-0.3,0-0.5v-0.4c0.3-0.1,0.4-0.2,0.4-0.4c0-0.2-0.2-0.3-2.2-0.5c0,0.6,0.1,1,0.1,1.3c0,0.1,0,0.2,0,0.4H38
	c-0.4,0-0.9,0-1.6-0.1l0.1,0.5C37.1,92.4,37.6,92.4,38,92.4L38,92.4z M36.8,98c0,0.4-0.1,2-0.1,2.2c0,0.3,0,0.4,0.6,0.4
	c0.9,0,1.2-0.2,1.2-0.6v-0.2h7.4c0.1,0,0.2-0.1,0.2-0.2s0-0.1-0.6-0.7c-0.6-0.5-0.6-0.5-0.7-0.5c-0.1,0-0.1,0-1,1.1h-1.9v-1.2H45
	c0.1,0,0.2,0,0.2-0.1s0-0.1-0.5-0.6c-0.4-0.4-0.5-0.5-0.7-0.5s-0.2,0-0.9,0.9h-1.2v-1.1h3.2c0.1,0,0.2,0,0.2-0.1s0-0.1-0.5-0.6
	c-0.4-0.4-0.5-0.5-0.6-0.5s-0.2,0-0.9,0.9H42v-0.9c0.1-0.1,0.2-0.1,0.2-0.2h3.7c0.1,0,0.2,0,0.2-0.1s-0.1-0.2-0.5-0.7
	C45,94.1,44.9,94,44.8,94s-0.2,0-1.1,1.2h-2.1c0.3-0.3,0.6-0.5,1.1-0.9c0.5-0.1,0.6-0.2,0.6-0.4c0-0.2-0.2-0.3-2.3-0.7
	c0,0.2,0,0.3,0,0.5c0,0.4-0.1,0.8-0.3,1.4H39c-0.1,0-0.3-0.1-0.5-0.2c0.1-0.2,0.2-0.3,0.3-0.5c0.5-0.1,0.6-0.3,0.6-0.4
	c0-0.2-0.2-0.3-2.1-0.8c-0.1,0.3-0.1,0.6-0.2,1c-0.3,1.1-0.8,2.5-1.3,3.4c-0.2-1.3-0.7-2.5-1.3-3.6c0.5-0.5,0.9-1.1,1.4-1.7
	c0.6-0.1,0.8-0.2,0.8-0.4c0-0.2-0.1-0.4-2.2-1.3c-0.1,0.4-0.2,0.6-0.3,0.9c-0.2,0.4-0.3,0.8-0.5,1.2c-0.6-0.7-1.3-1.4-2.2-2
	c-0.1,0-0.2,0.1-0.1,0.1c0.8,0.9,1.5,1.7,2,2.6c-0.7,1.3-1.4,2.3-2.1,2.9c-0.1,0.1,0,0.2,0.1,0.2c0.8-0.4,1.6-1,2.5-1.8
	c0.1,0.3,0.2,0.6,0.2,0.9c-0.7,2.9-1.9,5.3-2.9,6.3c-0.1,0.1,0,0.2,0.1,0.1c1.3-0.8,2.3-1.9,3.1-3.2c0,0.3,0,0.6,0,1
	c0,1.4-0.2,2.6-0.5,2.9c-0.2,0.3-0.5,0.5-0.9,0.6c-0.2,0-0.9,0.1-1.6,0c-0.1,0-0.1,0.1,0,0.2c1,0.4,1.3,0.9,1.5,1.5
	c0.1,0.3,0.2,0.4,0.5,0.4c1.6,0,2.7-1.5,2.7-4.9c0-0.9-0.1-1.8-0.2-2.6c0.4-0.3,0.8-0.7,1.3-1.2L36.8,98z M40.1,96.6h-1.6v-0.9
	c0.1,0,0.2-0.1,0.3-0.1h1.3c0,0.3,0,0.5,0,0.8V96.6z M40.1,98h-1.6v-1.1h1.6V98z M40.1,99.5h-1.6v-1.2h1.6V99.5z M37.7,100.9
	c-0.6,0-0.9,0-1.8-0.1l0.2,0.5c0.8-0.1,1-0.1,1.6-0.1h0.4c0.4,0.8,0.9,1.5,1.5,2.1c-1.6,1.1-3.5,1.8-5.2,2c-0.1,0-0.1,0.2,0,0.2
	c2.3,0,4.4-0.5,6.2-1.4c0.8,0.5,2.3,1.1,3.4,1.2c0.3,0,0.6,0.1,0.7,0.1c0.1,0,0.3-0.1,0.4-0.4c0.2-0.6,0.5-1.1,1-1.4
	c0.1,0,0.1-0.1,0-0.1c-1.2,0-2.7-0.1-3.9-0.4c0.5-0.3,1-0.7,1.6-1.3c0.7-0.2,0.8-0.3,0.8-0.5c0-0.1,0-0.2-0.7-0.7
	c-0.8-0.6-0.9-0.7-1.1-0.7c-0.1,0-0.2,0-1,0.8h-4.1C37.7,100.7,37.7,100.9,37.7,100.9z M41.8,101.2c-0.4,0.5-0.8,1-1.3,1.4
	c-0.8-0.4-1.5-0.9-2.1-1.4H41.8z M59.4,96.1h2.8v0.1c0,0.4,0.1,0.5,0.7,0.5c0.8,0,1.3-0.2,1.3-0.7c0-0.2-0.1-1.1-0.1-2.7v-1.1
	c0.4-0.4,0.5-0.4,0.5-0.6c0-0.1,0-0.2-0.7-0.7s-0.7-0.6-0.9-0.6s-0.2,0-1,0.8h-2.3c-0.1-0.2-0.6-0.3-2.2-0.7
	c0.1,0.7,0.1,1.2,0.1,2.7c0,1.7-0.1,2.8-0.1,3.3c0,0.3,0.1,0.4,0.7,0.4C58.9,96.8,59.4,96.6,59.4,96.1L59.4,96.1z M62.2,91.7v1.9
	h-2.8v-1.8c0.1,0,0.2-0.1,0.2-0.1H62.2z M59.4,95.8v-1.9h2.8v1.9H59.4z M51.3,95c1.7-0.6,3.5-1.5,5.1-2.8c0.5-0.1,0.7-0.2,0.7-0.4
	c0-0.2-0.1-0.3-2-1.5c-0.2,0.4-0.4,0.7-0.6,1c-1.2,1.6-2.2,2.8-3.3,3.5C51.2,94.9,51.2,95,51.3,95z M53.4,102c0,1.7-0.1,2.6-0.1,2.9
	c0,0.4,0.1,0.5,0.7,0.5c0.8,0,1.3-0.2,1.3-0.7c0-0.3,0-1.1,0-4.1v-2.8c0.4-0.2,0.5-0.3,0.5-0.4s-0.1-0.2-0.8-0.5
	c0.4-0.4,0.8-0.9,1.2-1.4c0.5-0.1,0.7-0.2,0.7-0.4c0-0.3-0.1-0.4-2.2-1.4c-0.1,0.4-0.2,0.7-0.3,0.9c-0.8,1.9-2.1,3.9-3.3,5.1
	c-0.1,0.1,0,0.2,0.1,0.1c0.8-0.4,1.5-1,2.3-1.6L53.4,102z M60.1,102.2c0-0.9-0.9-1.7-2.7-1.8c-0.1,0-0.1,0.1-0.1,0.2
	c0.5,0.4,0.7,0.9,0.7,1.8c0,0.7,0.4,1,0.9,1C59.7,103.4,60.1,102.9,60.1,102.2z M63.5,99.8V99c0.4-0.2,0.5-0.3,0.5-0.4
	c0-0.2-0.2-0.3-2-0.5h3.9c0.1,0,0.2-0.1,0.2-0.2s0-0.2-0.6-0.8c-0.7-0.7-0.7-0.7-0.9-0.7c-0.1,0-0.2,0-1.2,1.3H58
	c-0.5,0-0.9,0-1.9-0.1l0.1,0.5C57.1,98,57.5,98,58,98h3.5c0.1,0.5,0.1,1.1,0.1,1.7h-3.9c-0.5,0-0.9,0-1.9-0.1l0.1,0.5
	c0.9-0.1,1.3-0.1,1.8-0.1h3.9v2.5c0,0.6-0.2,0.8-0.7,0.9c-0.4,0-1,0.1-1.8,0.1c-0.1,0-0.1,0.1,0,0.2c1.2,0.2,1.5,0.8,1.7,1.2
	c0.1,0.3,0.2,0.4,0.5,0.4c0.4,0,0.9-0.1,1.2-0.2c0.8-0.4,1.1-0.9,1.1-1.7c0-0.6-0.1-2-0.1-3.4h2.6c0.1,0,0.2-0.1,0.2-0.2
	s0-0.2-0.6-0.7c-0.6-0.7-0.7-0.7-0.8-0.7c-0.1,0-0.2,0-1.1,1.3L63.5,99.8L63.5,99.8z"/>
<path class="st2" d="M33.4,34.4c0.6-0.9,1.2-1.5,3.9-3.3c3.9-2.5,4.6-3.7,4.6-5.7s-1.8-3.5-4.7-3.5c-2.6,0-4.9,1.7-4.9,3.4
	c0,0.9,0.6,1.5,1.6,1.5c0.9,0,1.5-0.6,1.5-1.5c0-0.5-0.3-0.9-0.7-1.1c-0.3-0.2-0.3-0.2-0.3-0.4c0-0.7,1-1.4,2-1.4
	c1.4,0,2.5,0.9,2.5,3c0,1.7-0.5,2.7-2.9,5.2c-2,2.2-2.9,3.4-3.9,5.3C32,36.1,32,36.2,32,36.5s0.1,0.4,0.3,0.4c1.5,0,2.9,0,4.6,0
	c1.6,0,3,0,4.5,0c0.4-1.1,1-3.4,1.2-4.4c0-0.1-0.1-0.2-0.2-0.2c-0.1,0-0.2,0.1-0.2,0.1c-0.7,1.8-1,2.1-2.6,2.1L33.4,34.4L33.4,34.4z
	"/>
</svg>
