<svg width="172" height="56" viewBox="0 0 172 56" fill="none" xmlns="http://www.w3.org/2000/svg">
<rect width="172" height="56" rx="15" fill="#DBAF6A" fill-opacity="0.75"/>
<rect x="1" y="1" width="170" height="54" rx="14" stroke="#9A6229" stroke-opacity="0.75" stroke-width="2"/>
<path d="M126.501 42.9851H154L150.688 37.8942H146.961L144.856 22.5859L141.931 22.9868C141.53 22.6469 140.747 22.0363 139.368 21.1767C138.078 20.3668 136.588 19.9468 135.388 19.9468C131.893 19.9468 127.96 19.9468 127.96 19.9468L126.883 19.3051L122.448 25.8937L124.484 27.1346L127.147 30.92C127.444 31.3436 127.846 31.6875 128.311 31.9127C128.311 31.9127 130.114 32.7647 131.554 33.4825C132.074 33.7423 132.684 33.9716 133.341 34.1778L133.853 37.8942H129.808L126.501 42.9851ZM136.943 35.159C138.944 35.6941 140.628 33.6582 138.983 32.2871C136.843 30.5036 136.775 30.4955 136.775 30.4955C136.064 29.9188 135.652 29.0559 135.645 28.1392C135.641 27.2267 136.041 26.3592 136.744 25.771L137.505 25.1413L143.55 24.3083L145.418 37.8941L145.696 39.9294H135.675L135.396 37.8941L134.949 34.6398C135.625 34.8196 136.308 34.9873 136.943 35.159Z" fill="#75391D" fill-opacity="0.75"/>
<path d="M122.483 16.0148L117 24.2273L120.921 26.7542L126.459 18.5427L122.483 16.0148Z" fill="#75391D" fill-opacity="0.75"/>
<path d="M25.815 20.723C25.815 20.658 25.776 20.632 25.737 20.632C25.711 20.632 25.685 20.645 25.672 20.684C25.555 20.996 25.438 21.516 25.438 21.828C25.438 22.478 25.659 23.089 26.14 23.544C26.92 24.285 27.921 24.623 30.014 24.623C30.768 24.623 31.626 24.558 32.081 24.48C32.562 24.402 32.77 24.259 32.77 23.817C32.77 23.258 31.886 22.79 31.171 22.777C30.898 22.855 30.599 22.946 30.326 22.985C29.819 23.063 29.351 23.089 28.805 23.089C27.31 23.089 26.556 22.764 26.14 22.244C25.906 21.945 25.802 21.594 25.802 21.061C25.802 20.944 25.802 20.853 25.815 20.723ZM27.011 18.578C26.972 18.617 26.946 18.643 26.946 18.682C26.946 18.708 26.972 18.734 27.011 18.734C27.037 18.734 27.05 18.734 27.115 18.708C28.207 18.214 28.818 18.006 29.455 17.915C30.053 17.824 30.456 17.824 30.859 17.811C31.496 17.785 31.769 17.577 31.769 17.2C31.769 16.745 31.275 16.303 30.079 16.238C29.832 16.329 29.689 16.368 29.208 16.42C28.935 16.446 28.493 16.459 28.129 16.459C27.167 16.459 26.582 16.381 26.179 16.043C26.114 15.991 26.101 15.991 26.075 15.991C26.049 15.991 26.049 16.017 26.049 16.056C26.049 16.186 26.218 16.563 26.426 16.836C26.751 17.226 27.141 17.512 28.038 17.59C27.739 17.889 27.31 18.292 27.011 18.578ZM40.895 24.766C42.819 24.571 44.275 24.142 45.471 23.297C46.407 22.647 47.096 21.49 47.096 20.281C47.096 19.228 46.615 18.149 45.796 17.395C44.951 16.615 43.807 16.069 42.351 16.069C41.272 16.069 40.037 16.381 38.997 17.07C37.749 17.915 36.93 19.267 36.93 20.736C36.93 21.334 37.112 21.971 37.398 22.491C37.684 22.998 38.139 23.44 38.581 23.44C38.88 23.44 39.153 23.323 39.465 23.102C41.064 21.958 42.26 19.293 42.26 18.136C42.26 17.486 42.039 17.057 41.571 16.511C41.779 16.485 42.013 16.485 42.208 16.485C43.248 16.485 43.989 16.797 44.652 17.499C45.185 18.084 45.419 18.825 45.419 19.8C45.419 20.84 44.964 21.893 44.301 22.608C43.469 23.479 42.429 24.116 40.882 24.636C40.843 24.649 40.83 24.675 40.83 24.701C40.83 24.74 40.843 24.766 40.895 24.766ZM41.272 16.576C41.389 16.836 41.402 17.057 41.402 17.252C41.402 18.162 40.726 19.813 39.374 21.347C39.062 21.698 38.854 21.763 38.672 21.763C38.451 21.763 38.243 21.607 38.1 21.36C37.918 21.022 37.866 20.645 37.866 20.268C37.866 18.396 39.855 16.784 41.272 16.576ZM55.91 21.113C56.209 21.438 56.456 21.75 56.664 22.049C57.054 22.621 57.34 22.855 57.678 22.855C58.094 22.855 58.445 22.582 58.445 21.945C58.445 21.334 57.821 20.58 56.82 19.904C57.262 19.267 57.717 18.539 58.185 17.694C58.328 17.46 58.458 17.252 58.653 17.057C58.835 16.901 58.9 16.81 58.9 16.667C58.9 16.485 58.848 16.368 58.393 15.952C57.925 15.51 57.509 15.263 57.288 15.263C57.093 15.263 56.898 15.315 56.482 15.445C56.378 15.484 56.352 15.51 56.352 15.536C56.352 15.562 56.352 15.562 56.417 15.614C56.781 15.874 56.963 16.095 56.963 16.277C56.963 16.42 56.924 16.615 56.755 16.979C56.404 17.759 56.001 18.5 55.572 19.176C54.753 18.773 53.687 18.435 52.413 18.292C52.335 18.292 52.283 18.331 52.283 18.383C52.283 18.422 52.309 18.461 52.361 18.487C53.271 18.916 54.142 19.514 54.909 20.164C53.869 21.659 52.816 22.751 52.257 23.258C51.373 24.025 50.71 24.506 49.904 24.948C49.852 24.974 49.839 25 49.839 25.039C49.839 25.078 49.865 25.104 49.93 25.104C50.827 24.857 51.984 24.363 52.907 23.791C53.817 23.219 54.818 22.439 55.91 21.113ZM67.233 18.058C67.233 17.122 66.141 16.42 64.347 16.42C64.178 16.42 64.048 16.433 63.918 16.446C63.853 16.459 63.827 16.498 63.827 16.524C63.827 16.55 63.84 16.576 63.866 16.589C64.555 16.979 65.062 17.577 65.478 18.344C65.738 18.786 65.959 18.994 66.388 18.994C66.96 18.994 67.233 18.552 67.233 18.058ZM65.673 24.285C65.803 24.285 65.933 24.233 66.024 24.155C66.18 24.051 66.323 23.934 66.531 23.791C69.469 21.763 71.549 19.904 73.395 17.096C73.408 17.07 73.408 17.07 73.408 17.044C73.408 16.992 73.369 16.953 73.317 16.953C73.278 16.953 73.239 16.979 73.213 17.005C71.003 19.228 68.403 21.035 65.92 22.283C65.608 22.439 65.335 22.491 65.192 22.491C65.01 22.491 64.737 22.465 64.347 22.192C64.269 22.14 64.23 22.114 64.204 22.114C64.152 22.114 64.139 22.127 64.126 22.218C64.113 22.387 64.1 22.621 64.1 22.738C64.1 22.868 64.204 23.05 64.373 23.271C64.62 23.57 64.945 23.869 65.244 24.116C65.439 24.272 65.556 24.285 65.673 24.285ZM76.216 25.377C78.322 24.753 80.272 23.739 82.105 21.62C82.326 21.906 82.521 22.205 82.703 22.517C83.028 23.063 83.314 23.193 83.665 23.193C84.016 23.193 84.393 22.907 84.393 22.361C84.393 21.698 83.821 21.048 82.989 20.515C83.522 19.787 84.042 18.955 84.562 17.993C84.744 17.655 84.887 17.512 85.095 17.382C85.29 17.239 85.368 17.187 85.368 16.966C85.368 16.784 85.225 16.615 84.679 16.186C84.198 15.809 83.912 15.64 83.769 15.64C83.665 15.64 83.587 15.692 83.418 15.822C83.275 15.952 83.145 15.991 82.95 16.03C82.43 16.134 82.014 16.212 81.741 16.251C81.728 16.056 81.546 15.874 81.208 15.601C80.727 15.211 80.428 15.042 80.259 15.029C80.064 15.029 79.817 15.081 79.505 15.172C79.427 15.198 79.401 15.211 79.401 15.237C79.401 15.263 79.414 15.289 79.492 15.341C79.921 15.601 79.986 15.809 79.986 15.913C79.986 16.004 79.869 16.368 79.726 16.628C78.907 18.305 77.698 19.735 76.476 20.801C76.45 20.827 76.437 20.853 76.437 20.892C76.437 20.931 76.463 20.97 76.528 20.97C76.554 20.97 76.554 20.97 76.593 20.957C78.27 20.19 79.752 19.007 81.195 17.122C81.312 17.148 81.403 17.161 81.494 17.161C81.611 17.161 81.728 17.135 82.001 17.096C82.547 17.005 82.937 16.927 83.132 16.927C83.184 16.927 83.236 16.966 83.236 17.018C83.236 17.044 83.236 17.057 83.21 17.122C82.82 18.006 82.313 18.942 81.702 19.852C81.117 19.631 80.519 19.462 79.843 19.358C79.752 19.358 79.7 19.397 79.7 19.436C79.7 19.475 79.726 19.501 79.791 19.54C80.298 19.826 80.766 20.177 81.195 20.58C79.817 22.465 78.049 24.181 76.164 25.221C76.112 25.247 76.099 25.273 76.099 25.312C76.099 25.351 76.138 25.377 76.177 25.377H76.216ZM97.471 19.384C97.237 19.384 97.081 19.41 96.977 19.423C96.639 19.462 96.509 19.475 96.184 19.501C94.403 19.618 93.324 19.696 91.075 19.813C90.802 19.826 90.542 19.839 90.23 19.839C89.879 19.839 89.645 19.787 89.281 19.475C89.229 19.436 89.229 19.436 89.203 19.436C89.177 19.436 89.151 19.462 89.138 19.527C89.099 19.748 89.086 19.904 89.086 20.021C89.086 20.203 89.255 20.463 89.723 20.957C90.035 21.295 90.295 21.399 90.425 21.399C90.555 21.399 90.659 21.373 90.802 21.295C90.984 21.191 91.127 21.152 91.452 21.126C93.35 20.918 95.352 20.814 96.496 20.814C97.003 20.814 97.848 20.827 98.173 20.827C98.602 20.827 98.94 20.658 98.94 20.255C98.94 19.982 98.784 19.748 98.29 19.54C98.069 19.449 97.731 19.384 97.471 19.384ZM103.256 15.562C103.23 15.549 103.204 15.536 103.178 15.536C103.152 15.536 103.139 15.562 103.139 15.588C103.139 15.614 103.139 15.614 103.152 15.653C103.269 15.978 103.269 16.147 103.269 16.342C103.269 16.55 103.217 17.031 102.996 17.941C102.58 19.735 102.437 20.853 102.437 21.815C102.437 23.115 102.723 23.947 103.035 24.402C103.308 24.818 103.542 25.026 103.906 25.026C104.309 25.026 104.569 24.753 104.569 24.402C104.569 24.22 104.53 24.038 104.491 23.869C104.465 23.713 104.439 23.583 104.439 23.44C104.439 23.336 104.465 23.167 104.53 22.738C104.634 22.075 104.855 20.983 105.089 19.956C105.089 19.891 105.063 19.852 105.024 19.852C104.998 19.852 104.972 19.878 104.946 19.943C104.634 20.684 104.27 21.529 103.919 22.27C103.841 22.426 103.776 22.504 103.698 22.504C103.607 22.504 103.49 22.231 103.49 21.516C103.49 20.853 103.802 19.605 104.192 18.643C104.465 18.019 104.582 17.655 104.582 17.356C104.582 17.044 104.478 16.797 104.218 16.433C103.958 16.082 103.568 15.731 103.256 15.562ZM106.61 21.126C106.61 21.074 106.584 21.035 106.545 21.035C106.506 21.035 106.493 21.048 106.467 21.126C106.389 21.451 106.376 21.594 106.376 21.867C106.376 23.999 108.339 24.337 110.263 24.337C110.848 24.337 111.251 24.272 111.524 24.155C111.849 24.012 111.94 23.804 111.94 23.518C111.94 23.18 111.732 22.894 110.861 22.725C110.744 22.699 110.653 22.699 110.575 22.699C110.419 22.699 110.289 22.725 110.12 22.764C109.743 22.842 109.574 22.855 108.872 22.855C107.689 22.855 106.87 22.53 106.675 21.698C106.636 21.529 106.61 21.347 106.61 21.126ZM106.428 17.746C106.35 17.785 106.311 17.798 106.311 17.837C106.311 17.863 106.337 17.863 106.415 17.876C106.688 17.915 106.974 18.019 107.169 18.123C107.442 18.266 107.728 18.305 108.144 18.305C108.196 18.305 108.222 18.318 108.222 18.344C108.222 18.37 108.209 18.383 108.17 18.422C107.975 18.643 107.676 18.968 107.429 19.241C107.377 19.306 107.377 19.306 107.377 19.332C107.377 19.358 107.39 19.384 107.429 19.384C107.468 19.384 107.494 19.371 107.533 19.345C108.469 18.63 109.405 18.344 110.549 18.123C111.108 18.019 111.29 17.837 111.29 17.512C111.29 17.122 110.718 16.745 109.808 16.758C109.626 16.862 109.483 16.901 109.366 16.927C108.846 17.07 108.339 17.213 107.897 17.317C107.39 17.434 106.896 17.551 106.428 17.746ZM49.397 32.211C49.501 32.159 49.566 32.107 49.605 32.068H50.489V33.186C50.489 34.369 50.463 34.616 50.463 34.798C50.463 35.825 50.749 36.059 52.322 36.059C53.947 36.059 54.506 35.734 54.506 35.097C54.506 34.98 54.428 34.785 54.285 34.629C54.181 34.525 54.155 34.369 54.155 34.148C54.155 33.927 54.22 33.368 54.272 32.887C54.272 32.796 54.181 32.796 54.142 32.861C53.57 34.252 53.258 34.525 52.595 34.525C52.049 34.525 51.997 34.46 51.997 34.226V32.536C52.348 32.315 52.387 32.25 52.387 32.133C52.387 32.016 52.335 31.951 51.776 31.483C51.334 31.106 51.282 31.093 51.139 31.093C50.996 31.093 50.944 31.119 50.372 31.808H49.566C49.423 31.691 48.994 31.535 47.798 31.236C47.863 31.925 47.889 32.445 47.889 33.082C47.889 35.305 47.616 35.942 46.758 36.605C46.693 36.657 46.758 36.748 46.836 36.722C48.5 36.033 49.397 34.629 49.397 32.796V32.211ZM45.588 34.252H47.356C47.447 34.252 47.499 34.174 47.499 34.096C47.499 33.992 47.46 33.953 47.07 33.524C46.576 32.978 46.537 32.965 46.446 32.965C46.342 32.965 46.316 32.965 45.627 33.992H45.588V32.016C45.952 31.821 46.043 31.73 46.043 31.574C46.043 31.353 45.692 31.236 44.041 31.093C44.132 31.795 44.132 32.172 44.132 33.992H43.872C43.469 33.992 43.131 33.979 42.468 33.901L42.598 34.343C43.209 34.265 43.521 34.252 43.872 34.252H44.132V36.787C43.872 36.865 43.625 36.93 43.391 36.995C42.949 37.112 42.702 37.177 42.351 37.255C43.066 39.127 43.118 39.153 43.274 39.153C43.404 39.153 43.443 39.088 43.56 38.789C43.755 38.646 43.937 38.503 44.132 38.347V40.804C44.132 41.233 44.015 41.415 43.716 41.454C43.352 41.506 43.066 41.532 42.572 41.558C42.494 41.558 42.494 41.662 42.572 41.688C43.378 41.961 43.625 42.338 43.742 42.78C43.807 43.04 43.898 43.118 44.106 43.118C44.392 43.118 44.678 43.053 45.016 42.845C45.406 42.611 45.653 42.195 45.653 41.584C45.653 41.155 45.601 40.557 45.588 37.385C46.225 36.813 46.732 36.358 47.252 35.877C47.304 35.825 47.265 35.721 47.187 35.747C46.706 35.929 46.16 36.137 45.588 36.332V34.252ZM48.669 37.021C48.201 37.021 47.707 37.008 46.979 36.93L47.109 37.372C47.564 37.32 47.941 37.294 48.292 37.281C48.474 38.854 48.721 39.686 49.267 40.544C48.149 41.779 46.706 42.585 45.185 42.949C45.107 42.962 45.146 43.092 45.224 43.092C46.979 42.962 48.838 42.377 50.008 41.467C50.71 42.13 51.776 42.793 52.777 43.092C52.881 43.118 52.959 43.144 53.076 43.144C53.193 43.144 53.284 43.092 53.414 42.845C53.687 42.351 54.142 41.883 54.649 41.675C54.727 41.649 54.727 41.571 54.649 41.558C53.466 41.376 52.101 40.947 51.113 40.414C51.672 39.777 52.088 39.101 52.686 37.905C53.024 37.762 53.141 37.645 53.141 37.502C53.141 37.346 53.037 37.203 52.53 36.839C51.828 36.319 51.763 36.332 51.62 36.332C51.529 36.332 51.451 36.371 50.931 37.021H48.669ZM51.061 37.281C50.801 38.152 50.437 38.932 49.995 39.608C49.163 38.88 48.773 38.165 48.526 37.281H51.061ZM59.485 32.224V33.628H58.705C58.627 33.459 58.289 33.355 56.937 33.03C56.976 33.55 56.976 34.148 56.976 34.85C56.976 35.5 56.924 36.176 56.924 36.332C56.924 36.709 57.015 36.787 57.431 36.787C58.081 36.787 58.393 36.631 58.419 36.15H64.464V36.189C64.464 36.553 64.555 36.657 65.088 36.657C65.816 36.657 66.128 36.423 66.128 36.059C66.128 35.929 66.063 35.123 66.063 34.616V34.343C66.414 34.057 66.44 34.018 66.44 33.901C66.44 33.771 66.414 33.732 65.959 33.381C65.335 32.9 65.257 32.874 65.127 32.874C65.01 32.874 64.971 32.9 64.321 33.628H63.385V32.419C63.476 32.354 63.567 32.289 63.58 32.224H67.272C67.376 32.224 67.415 32.172 67.415 32.081C67.415 31.964 67.376 31.912 66.869 31.457C66.245 30.898 66.206 30.885 66.076 30.885C65.946 30.885 65.92 30.898 65.023 31.964H57.782C57.093 31.964 56.495 31.951 55.676 31.873L55.793 32.315C56.547 32.237 57.119 32.224 57.782 32.224H59.485ZM61.955 32.224V33.628H60.889V32.406C60.98 32.341 61.071 32.276 61.084 32.224H61.955ZM64.464 33.888V35.89H63.385V33.888H64.464ZM60.889 33.888H61.955V35.89H60.889V33.888ZM59.485 35.89H58.419V34.07C58.51 34.005 58.588 33.94 58.64 33.888H59.485V35.89ZM59.225 37.398C58.848 37.398 58.263 37.372 57.626 37.307L57.756 37.749C58.367 37.684 58.926 37.658 59.225 37.658H65.023C65.127 37.658 65.218 37.619 65.218 37.515C65.218 37.411 65.153 37.346 64.737 36.969C64.165 36.449 64.126 36.436 64.022 36.436C63.918 36.436 63.879 36.462 63.112 37.398H59.225ZM60.135 40.544C60.135 40.388 60.07 40.297 58.432 39.413C58.25 39.79 58.081 40.063 57.899 40.323C57.067 41.532 56.105 42.442 55.351 42.806C55.286 42.845 55.338 42.949 55.416 42.936C56.846 42.572 58.458 41.753 59.589 40.83C60.044 40.778 60.135 40.726 60.135 40.544ZM62.839 39.764C62.761 39.764 62.735 39.868 62.813 39.894C63.801 40.284 64.529 41.064 64.932 41.87C65.179 42.364 65.4 42.533 65.777 42.533C66.232 42.533 66.635 42.169 66.635 41.623C66.635 40.583 65.14 39.686 62.839 39.764ZM57.73 38.841C57.197 38.841 56.56 38.841 55.832 38.75L55.949 39.192C56.664 39.127 57.262 39.101 57.73 39.101H60.759C60.785 39.439 60.785 39.699 60.785 40.102V40.882C60.785 41.467 60.642 41.597 60.213 41.636C59.849 41.675 59.55 41.688 59.082 41.675C59.004 41.675 58.991 41.779 59.069 41.805C59.849 42.039 60.148 42.39 60.291 42.806C60.408 43.157 60.512 43.17 60.772 43.17C61.045 43.17 61.383 43.144 61.786 42.91C62.293 42.611 62.475 42.273 62.475 41.649C62.475 41.09 62.397 40.713 62.397 39.855V39.4C62.605 39.283 62.644 39.192 62.644 39.101H67.207C67.402 39.101 67.454 39.036 67.454 38.919C67.454 38.828 67.415 38.776 66.96 38.373C66.245 37.736 66.206 37.723 66.089 37.723C65.972 37.723 65.933 37.749 65.049 38.841H57.73ZM75.8 34.824C76.385 34.759 76.905 34.733 77.282 34.733C77.815 34.733 78.283 34.798 78.816 34.915C79.037 34.967 79.31 35.006 79.466 35.006C79.765 35.006 79.947 34.85 79.947 34.629C79.947 34.265 79.791 34.096 79.44 33.888C78.855 33.563 78.517 33.446 78.218 33.446C78.101 33.446 77.997 33.498 77.854 33.576C77.724 33.641 77.594 33.667 77.321 33.693C76.84 33.732 76.411 33.784 75.826 33.849C75.826 33.16 75.878 32.965 75.995 32.77C76.073 32.653 76.112 32.575 76.112 32.406C76.112 32.211 76.047 32.042 75.553 31.756C75.085 31.483 74.877 31.431 74.734 31.431C74.552 31.431 74.24 31.535 73.824 31.86C73.759 31.912 73.746 31.938 73.746 31.977C73.746 32.029 73.798 32.068 73.902 32.068C74.123 32.081 74.305 32.12 74.396 32.198C74.513 32.289 74.578 32.432 74.591 32.939C74.604 33.264 74.617 33.628 74.63 34.005C73.473 34.161 72.16 34.369 70.899 34.59C70.548 34.655 70.249 34.694 69.989 34.694C69.716 34.694 69.456 34.642 69.092 34.408C69.053 34.382 69.053 34.382 69.027 34.382C69.001 34.382 68.975 34.421 68.975 34.564C68.975 34.967 69.027 35.071 69.547 35.617C69.898 35.994 70.171 36.098 70.366 36.098C70.522 36.098 70.613 36.059 70.795 35.968C70.99 35.864 71.172 35.786 71.406 35.708C72.459 35.37 73.603 35.136 74.643 34.98C74.643 35.396 74.656 35.812 74.656 36.241C74.188 36.241 73.668 36.423 73.291 36.657C72.888 36.917 72.667 37.372 72.68 37.723C72.68 38.087 72.771 38.529 73.044 38.919C73.382 39.387 73.746 39.764 74.188 40.024C73.551 41.285 72.602 42.065 71.172 42.715C71.12 42.741 71.12 42.767 71.12 42.793C71.12 42.819 71.146 42.845 71.198 42.845C72.953 42.52 74.318 41.909 75.254 40.752C75.8 40.076 76.06 39.205 76.06 38.295C76.06 37.749 75.956 37.255 75.8 36.709C75.8 35.968 75.8 35.344 75.8 34.824ZM74.227 38.724C73.954 38.724 73.603 38.607 73.317 38.373C73.07 38.165 72.979 37.957 72.979 37.736C72.979 37.58 73.096 37.359 73.239 37.255C73.499 37.06 73.798 36.995 74.006 36.995C74.318 36.995 74.63 37.203 74.63 37.918C74.63 38.074 74.591 38.321 74.513 38.529C74.461 38.672 74.383 38.724 74.227 38.724ZM86.174 37.346C87.097 36.28 87.734 35.526 88.514 34.642C89.047 34.044 89.216 33.901 89.502 33.693C89.736 33.524 89.801 33.42 89.801 33.264C89.801 33.069 89.593 32.796 89.151 32.38C88.956 32.185 88.761 32.068 88.553 32.068C88.41 32.068 88.241 32.159 87.994 32.354C86.564 32.978 85.81 33.212 85.433 33.212C85.134 33.212 84.848 33.095 84.64 32.822C84.614 32.783 84.588 32.757 84.549 32.757C84.51 32.757 84.497 32.783 84.484 32.835C84.445 33.043 84.419 33.212 84.419 33.355C84.419 33.615 84.484 33.758 84.731 34.083C85.004 34.447 85.186 34.59 85.368 34.59C85.537 34.59 85.68 34.551 85.81 34.447C86.343 34.122 87.045 33.732 87.708 33.459C87.747 33.446 87.773 33.433 87.799 33.433C87.825 33.433 87.838 33.446 87.838 33.472C87.838 33.498 87.812 33.55 87.773 33.615C87.474 34.07 86.772 35.045 86.096 35.877C85.355 36.8 84.523 37.762 83.912 38.373C83.418 38.854 83.353 39.049 83.353 39.374C83.353 39.855 83.691 40.219 84.016 40.219C84.328 40.219 84.497 40.089 84.809 39.621C85.459 38.672 86.044 38.126 86.525 37.814C87.097 37.424 87.747 37.255 88.15 37.255C89.281 37.255 90.074 37.879 90.074 38.841C90.074 39.959 89.606 40.544 88.878 41.025C88.475 40.232 87.734 39.79 86.85 39.79C85.979 39.79 85.342 40.349 85.342 40.999C85.342 41.818 86.187 42.442 87.591 42.442C89.697 42.442 91.634 41.051 91.634 39.27C91.634 37.567 90.113 36.657 88.423 36.657C87.708 36.657 87.045 36.826 86.187 37.372L86.174 37.346ZM87.721 41.454C87.487 41.532 87.266 41.571 86.876 41.571C86.343 41.571 85.771 41.272 85.771 40.869C85.771 40.518 85.979 40.362 86.408 40.349C86.863 40.349 87.448 40.726 87.721 41.454Z" fill="#915B38"/>
</svg>
